<?xml version="1.0" encoding="UTF-8"?>
<svg id="Layer_1" data-name="Layer 1" xmlns="http://www.w3.org/2000/svg" viewBox="0 0 144 144">
  <defs>
    <style>
      .cls-1 {
        fill: #f59bb4;
      }

      .cls-2 {
        fill: #3e3e3f;
      }

      .cls-3 {
        fill: #3b3b3c;
      }
    </style>
  </defs>
  <path class="cls-1" d="m113.27,52.96c8.18-20.49-1.72-44.66-10.48-45.34s-17.24,16.6-18.95,38.59c-.42,5.38-.66,10.61-.66,15.46-2.62-.54-5.33-.83-8.12-.83-2.14,0-4.24.18-6.29.5-1.39-5.1-3.22-10.61-5.31-16.23-7.69-20.68-20.59-34.96-28.82-31.9s-11.11,29.03,2.38,46.48c3.73,4.82,6.95,9.18,9.83,12.98-6.47,6.68-10.45,15.65-10.45,25.52,0,4.01.66,7.87,1.87,11.49-.41,1.49-.65,3.04-.65,4.64,0,11.72,11.79,21.22,26.33,21.22,1.8,0,3.56-.15,5.26-.43,1.91.28,3.86.43,5.85.43,21.35,0,38.66-16.72,38.66-37.35,0-9.04-3.32-17.32-8.85-23.78,2.38-5.67,4.98-12.9,8.39-21.44Z"/>
  <circle class="cls-2" cx="78.12" cy="107.44" r="7.48"/>
  <circle class="cls-3" cx="46.77" cy="101.78" r="7.48"/>
  <ellipse class="cls-2" cx="54.26" cy="117.1" rx="2.01" ry="2.97" transform="translate(-73.48 135.49) rotate(-73.33)"/>
</svg>